# xmcd CD database file
#
# Track frame offsets:
#	150
#	15431
#	67729
#	81175
#	95451
#	110150
#	122527
#	136085
#	151209
#	166599
#	180806
#	195912
#	210328
#	223900
#	237051
#	249894
#	263384
#	275189
#	287675
#	301615
#	316020
#
# Disc length: 4408 seconds
#
# Revision: 1
# Processed by: cddbd v1.5.2PL0 Copyright (c) Steve Scherf et al.
# Submitted via: CDex 1.51
#
DISCID=fc113615
DTITLE=Woody Herman - [CD 03-10] - At The Woodchopper's Ball 
DYEAR=1900
DGENRE=Jazz
TTITLE0=Romance In The Dark  [1946]
TTITLE1=Summer Sequence  [1946]
TTITLE2=Uncle Remus Said  [1946]
TTITLE3=Everywhere  [1946]
TTITLE4=Whith Someone New  [1946]
TTITLE5=Wrap Your Troubles In Dreams  [1946]
TTITLE6=Black Talk  [1946]
TTITLE7=Someday Sweetheart  [1946]
TTITLE8=I Surrender Dear  [1946]
TTITLE9=At The Woodchopper's Ball  [1946]
TTITLE10=Blue Flame  [1946]
TTITLE11=The Blues Are Brewin'  [1946]
TTITLE12=Non-Alcoholic  [1946]
TTITLE13=Across The Alley  [1947]
TTITLE14=Baby, Baby All The Time  [1947]
TTITLE15=There Is No Greater Love  [1947]
TTITLE16=Ivy  [1947]
TTITLE17=Can You Look Me In The Eyes  [1947]
TTITLE18=That's My Desire  [1947]
TTITLE19=Pancho Maximillian Hernandez  [1947]
TTITLE20=Somebody Loves Me  [1947]
EXTD=
EXTT0=
EXTT1=
EXTT2=
EXTT3=
EXTT4=
EXTT5=
EXTT6=
EXTT7=
EXTT8=
EXTT9=
EXTT10=
EXTT11=
EXTT12=
EXTT13=
EXTT14=
EXTT15=
EXTT16=
EXTT17=
EXTT18=
EXTT19=
EXTT20=
PLAYORDER=
